<svg width="46" height="46" viewBox="0 0 46 46" fill="none" xmlns="http://www.w3.org/2000/svg">
<path d="M23 0C10.2944 0 0 10.3871 0 23C0 35.7056 10.2944 46 23 46C35.6129 46 46 35.7056 46 23C46 10.3871 35.6129 0 23 0ZM32.2742 33.8508C31.9032 33.8508 31.625 33.7581 31.3468 33.5726C25.504 30.0484 18.8266 29.9556 12.1492 31.254C11.7782 31.3468 11.3145 31.5323 11.0363 31.5323C10.1089 31.5323 9.55242 30.7903 9.55242 30.0484C9.55242 29.121 10.1089 28.6573 10.8508 28.4718C18.4556 26.8024 26.1532 26.9879 32.8306 30.8831C33.3871 31.254 33.6653 31.625 33.6653 32.4597C33.6653 33.2944 33.0161 33.8508 32.2742 33.8508ZM34.7782 27.8226C34.3145 27.8226 33.9435 27.5444 33.6653 27.4516C27.8226 24.0202 19.1976 22.629 11.5 24.6694C11.0363 24.7621 10.8508 24.9476 10.3871 24.9476C9.45968 24.9476 8.625 24.1129 8.625 23.0927C8.625 22.1653 9.08871 21.5161 10.0161 21.2379C12.6129 20.496 15.3024 19.9395 19.1048 19.9395C25.1331 19.9395 30.9758 21.4234 35.5202 24.2056C36.2621 24.5766 36.6331 25.2258 36.6331 25.9677C36.5403 26.9879 35.7984 27.8226 34.7782 27.8226ZM37.6532 20.7742C37.1895 20.7742 36.9113 20.5887 36.4476 20.4032C29.8629 16.4153 18.0847 15.4879 10.3871 17.621C10.1089 17.7137 9.64516 17.8992 9.18145 17.8992C7.97581 17.8992 7.04839 16.879 7.04839 15.6734C7.04839 14.375 7.88306 13.7258 8.71774 13.4476C11.9637 12.5202 15.5806 12.0565 19.5685 12.0565C26.3387 12.0565 33.4798 13.4476 38.5806 16.5081C39.3226 16.879 39.7863 17.4355 39.7863 18.5484C39.7863 19.8468 38.7661 20.7742 37.6532 20.7742Z" fill="#1CD863"/>
</svg>
