<svg width="27" height="23" viewBox="0 0 27 23" fill="none" xmlns="http://www.w3.org/2000/svg">
<path opacity="0.6" d="M22.9958 3.2229C20.4177 1.06665 16.6208 1.39478 14.2302 3.87915L13.3396 4.81665L12.4021 3.87915C10.4802 1.9104 6.63647 0.69165 3.63647 3.2229C0.68335 5.75415 0.542725 10.2542 3.16772 12.9729L12.2615 22.3479C12.5427 22.6292 12.9177 22.7698 13.2927 22.7698C13.7146 22.7698 14.0896 22.6292 14.3708 22.3479L23.4646 12.9729C26.0896 10.2542 25.949 5.75415 22.9958 3.2229ZM22.3865 11.9417L13.3396 21.3167L4.24585 11.9417C2.4646 10.0667 2.0896 6.55103 4.62085 4.39478C7.19897 2.19165 10.199 3.7854 11.324 4.9104L13.3396 6.9729L15.3083 4.9104C16.3865 3.7854 19.4333 2.19165 22.0115 4.39478C24.5427 6.55103 24.1677 10.0667 22.3865 11.9417Z" fill="white"/>
</svg>
