<svg width="7" height="25" viewBox="0 0 7 25" fill="none" xmlns="http://www.w3.org/2000/svg">
<path opacity="0.6" d="M6.38135 3.26978C6.38135 1.62915 5.02197 0.269775 3.38135 0.269775C1.69385 0.269775 0.381348 1.62915 0.381348 3.26978C0.381348 4.95728 1.69385 6.26978 3.38135 6.26978C5.02197 6.26978 6.38135 4.95728 6.38135 3.26978ZM6.38135 12.2698C6.38135 10.6292 5.02197 9.26978 3.38135 9.26978C1.69385 9.26978 0.381348 10.6292 0.381348 12.2698C0.381348 13.9573 1.69385 15.2698 3.38135 15.2698C5.02197 15.2698 6.38135 13.9573 6.38135 12.2698ZM6.38135 21.2698C6.38135 19.6292 5.02197 18.2698 3.38135 18.2698C1.69385 18.2698 0.381348 19.6292 0.381348 21.2698C0.381348 22.9573 1.69385 24.2698 3.38135 24.2698C5.02197 24.2698 6.38135 22.9573 6.38135 21.2698Z" fill="white"/>
</svg>
