<svg width="20" height="23" viewBox="0 0 20 23" fill="none" xmlns="http://www.w3.org/2000/svg">
<path d="M9.625 0.75C4.29688 0.75 0 5.08984 0 10.375C0 14.3711 2.36328 17.7656 5.80078 19.2266C5.62891 18.3242 5.54297 17.4648 5.5 16.7344C3.4375 15.4023 2.0625 13.0391 2.0625 10.375C2.0625 6.20703 5.41406 2.8125 9.625 2.8125C13.793 2.8125 17.1875 6.20703 17.1875 10.375C17.1875 13.0391 15.7695 15.4023 13.707 16.7344C13.6641 17.4648 13.5781 18.3242 13.4062 19.2266C16.8438 17.7656 19.25 14.3711 19.25 10.375C19.25 5.08984 14.9102 0.75 9.625 0.75ZM9.625 14.1562C8.20703 14.1562 6.875 14.543 6.875 16.0469C6.875 17.4648 7.39062 20.5586 7.73438 21.7617C7.94922 22.5781 8.80859 22.75 9.625 22.75C10.3984 22.75 11.2578 22.5781 11.4727 21.7617C11.8164 20.5156 12.375 17.4648 12.375 16.0469C12.375 14.543 11 14.1562 9.625 14.1562ZM9.625 12.7812C10.9141 12.7812 12.0312 11.707 12.0312 10.375C12.0312 9.08594 10.9141 7.96875 9.625 7.96875C8.29297 7.96875 7.21875 9.08594 7.21875 10.375C7.21875 11.707 8.29297 12.7812 9.625 12.7812ZM15.8125 10.375C15.8125 6.98047 13.0195 4.1875 9.625 4.1875C6.1875 4.1875 3.4375 6.98047 3.4375 10.375C3.4375 12.3086 4.29688 14.0273 5.71484 15.1445C5.88672 14.6289 6.31641 14.0273 7.08984 13.6406C6.10156 12.9102 5.5 11.707 5.5 10.375C5.5 8.09766 7.30469 6.25 9.625 6.25C11.9023 6.25 13.75 8.09766 13.75 10.375C13.75 11.707 13.1055 12.9102 12.1172 13.6406C12.8906 14.0273 13.3203 14.6289 13.4922 15.1445C14.9102 14.0273 15.8125 12.3086 15.8125 10.375Z" fill="white"/>
</svg>
