<svg width="23" height="23" viewBox="0 0 23 23" fill="none" xmlns="http://www.w3.org/2000/svg">
<path d="M19.207 6.25H9.36719L21.2266 2.8125C21.7852 2.64062 22.0859 2.03906 21.957 1.52344C21.7852 0.964844 21.2266 0.664062 20.668 0.792969L2.19141 6.20703C0.945312 6.59375 0.0859375 7.71094 0 9V20C0 21.5469 1.20312 22.75 2.75 22.75H19.207C20.7539 22.75 21.957 21.5469 21.957 20V9C21.957 7.49609 20.7539 6.25 19.207 6.25ZM3.4375 11.4062C3.4375 11.2344 3.56641 11.0625 3.73828 11.0625H8.55078C8.76562 11.0625 8.89453 11.2344 8.89453 11.4062V12.0938C8.89453 12.3086 8.76562 12.4375 8.55078 12.4375H3.73828C3.56641 12.4375 3.4375 12.3086 3.4375 12.0938V11.4062ZM8.89453 17.5938C8.89453 17.8086 8.76562 17.9375 8.55078 17.9375H3.73828C3.56641 17.9375 3.4375 17.8086 3.4375 17.5938V16.9062C3.4375 16.7344 3.56641 16.5625 3.73828 16.5625H8.55078C8.76562 16.5625 8.89453 16.7344 8.89453 16.9062V17.5938ZM9.58203 14.8438C9.58203 15.0586 9.45312 15.1875 9.23828 15.1875H3.09375C2.87891 15.1875 2.75 15.0586 2.75 14.8438V14.1562C2.75 13.9844 2.87891 13.8125 3.09375 13.8125H9.23828C9.45312 13.8125 9.58203 13.9844 9.58203 14.1562V14.8438ZM15.7695 17.9375C13.8789 17.9375 12.332 16.4336 12.332 14.5C12.332 12.6094 13.8789 11.0625 15.7695 11.0625C17.7031 11.0625 19.207 12.6094 19.207 14.5C19.207 16.4336 17.7031 17.9375 15.7695 17.9375Z" fill="white"/>
</svg>
