<svg width="22" height="22" viewBox="0 0 22 22" fill="none" xmlns="http://www.w3.org/2000/svg">
<path d="M10.0117 9.80469C9.45312 10.3203 9.45312 11.2227 10.0117 11.7383C10.5273 12.2969 11.4297 12.2969 11.9453 11.7383C12.5039 11.2227 12.5039 10.3203 11.9453 9.80469C11.4297 9.24609 10.5273 9.24609 10.0117 9.80469ZM11 0.4375C5.28516 0.4375 0.6875 5.07812 0.6875 10.75C0.6875 16.4648 5.28516 21.0625 11 21.0625C16.6719 21.0625 21.3125 16.4648 21.3125 10.75C21.3125 5.07812 16.6719 0.4375 11 0.4375ZM16.4141 6.49609L13.5781 12.6836C13.4492 12.9414 13.1484 13.2422 12.8906 13.3711L6.70312 16.207C5.97266 16.5078 5.24219 15.7773 5.54297 15.0469L8.37891 8.85938C8.50781 8.60156 8.80859 8.30078 9.06641 8.17188L15.2539 5.33594C15.9844 5.03516 16.7148 5.76562 16.4141 6.49609Z" fill="white"/>
</svg>
