<svg width="23" height="27" viewBox="0 0 23 27" fill="none" xmlns="http://www.w3.org/2000/svg">
<path opacity="0.5" d="M17.875 26.25C20.5664 26.25 22.75 24.1172 22.75 21.375V17.7188C22.75 17.0586 22.1914 16.5 21.5312 16.5C20.8203 16.5 20.3125 17.0586 20.3125 17.7188V21.375C20.3125 22.7461 19.1953 23.8125 17.875 23.8125H4.875C3.50391 23.8125 2.4375 22.7461 2.4375 21.375V17.7188C2.4375 17.0586 1.87891 16.5 1.21875 16.5C0.507812 16.5 0 17.0586 0 17.7188V21.375C0 24.1172 2.13281 26.25 4.875 26.25H17.875ZM12.1875 17.8203L19.0938 11.3203C19.6016 10.8633 19.6016 10.1016 19.1445 9.59375C18.6875 9.08594 17.9258 9.08594 17.418 9.54297L12.5938 14.1133V1.46875C12.5938 0.808594 12.0352 0.25 11.375 0.25C10.6641 0.25 10.1562 0.808594 10.1562 1.46875V14.1133L5.28125 9.54297C4.77344 9.08594 4.01172 9.08594 3.55469 9.59375C3.35156 9.84766 3.25 10.1523 3.25 10.4062C3.25 10.7617 3.35156 11.0664 3.60547 11.3203L10.5117 17.8203C10.9688 18.2773 11.7305 18.2773 12.1875 17.8203Z" fill="white"/>
</svg>
