<svg width="28" height="24" viewBox="0 0 28 24" fill="none" xmlns="http://www.w3.org/2000/svg">
<path opacity="0.5" d="M24.4609 2.44922C23.2422 1.38281 21.7188 0.875 20.1953 0.875C18.3164 0.875 16.3867 1.6875 14.9648 3.10938L14 4.17578L12.9844 3.10938C11.5625 1.6875 9.63281 0.875 7.75391 0.875C6.23047 0.875 4.70703 1.38281 3.48828 2.44922C0.289062 5.19141 0.136719 10.0664 2.98047 13.0117L12.7812 23.168C13.1367 23.4727 13.543 23.625 13.9492 23.625C14.4062 23.625 14.8125 23.4727 15.1172 23.168L24.9688 13.0117C27.8125 10.0664 27.6602 5.19141 24.4609 2.44922ZM23.1914 11.3359L13.9492 20.832L4.75781 11.3359C3.13281 9.60938 2.72656 6.30859 5.0625 4.32812C7.09375 2.55078 9.88672 3.41406 11.207 4.83594C12.7305 6.35938 11.6641 5.29297 14 7.67969C15.8789 5.69922 15.3203 6.25781 16.7422 4.83594C18.0625 3.46484 20.8555 2.55078 22.8867 4.32812C25.2227 6.30859 24.8672 9.60938 23.1914 11.3359Z" fill="white"/>
</svg>
