<svg width="261" height="48" viewBox="0 0 261 48" fill="none" xmlns="http://www.w3.org/2000/svg">
<path opacity="0.7" d="M194.406 14C193.695 14 193.188 14.5586 193.188 15.2188V20.6016L184.352 14.3047C184.098 14.1523 183.742 14.0508 183.438 14.0508C183.133 14.0508 182.879 14.1016 182.676 14.2031C182.117 14.5078 181.812 15.0156 181.812 15.625V31.875C181.812 32.4844 182.117 33.043 182.676 33.3477C182.879 33.4492 183.184 33.5 183.438 33.5C183.742 33.5 184.098 33.3984 184.352 33.2461L193.188 26.9492V32.2812C193.188 32.9922 193.695 33.5 194.406 33.5C195.066 33.5 195.625 32.9922 195.625 32.2812V15.2188C195.625 14.5586 195.066 14 194.406 14ZM193.188 23.9531L191.766 24.9688L184.25 30.3008V17.25L191.766 22.582L193.188 23.5977V23.9531Z" fill="white"/>
<path opacity="0.7" d="M68 15.2188V32.2812C68 32.9922 68.5078 33.5 69.2188 33.5C69.8789 33.5 70.4375 32.9922 70.4375 32.2812V26.9492L79.2227 33.2461C79.4766 33.3984 79.832 33.5 80.1875 33.5C80.4414 33.5 80.6953 33.4492 80.8984 33.3477C81.457 33.043 81.8125 32.4844 81.8125 31.875V15.625C81.8125 15.0156 81.457 14.5078 80.8984 14.2031C80.6953 14.1016 80.4414 14.0508 80.1367 14.0508C79.832 14.0508 79.4766 14.1523 79.2227 14.3047L70.4375 20.6016V15.2188C70.4375 14.5586 69.8789 14 69.2188 14C68.5078 14 68 14.5586 68 15.2188ZM70.4375 23.5977L71.8086 22.582L79.375 17.25V30.3008L71.8086 24.9688L70.4375 23.9531V23.5977Z" fill="white"/>
<g opacity="0.5">
<path d="M17.7276 25.0142C17.3513 24.5961 16.7242 24.5961 16.3479 25.0142C15.9298 25.3905 15.9298 26.0177 16.3479 26.394L17.9785 28.0246H13.8811L11.4142 24.8052L10.1599 26.4776L12.5431 29.6552C12.7522 29.906 13.0449 30.0315 13.3793 30.0315H17.9785L16.3479 31.7039C15.9298 32.0802 15.9298 32.7073 16.3479 33.0836C16.5151 33.2927 16.766 33.3763 17.0587 33.3763C17.3095 33.3763 17.5604 33.2927 17.7276 33.0836L21.0725 29.7388C21.4906 29.3625 21.4906 28.7353 21.0725 28.359L17.7276 25.0142ZM1.00345 19.328H4.85001L7.27501 22.5892L8.52933 20.9168L6.14613 17.7392C5.93708 17.4883 5.64441 17.3211 5.35173 17.3211H1.00345C0.418104 17.3211 0 17.781 0 18.3245C0 18.9099 0.418104 19.328 1.00345 19.328ZM17.9785 19.328L16.3479 21.0004C15.9298 21.3767 15.9298 22.0039 16.3479 22.3802C16.5151 22.5892 16.766 22.6728 17.0587 22.6728C17.3095 22.6728 17.5604 22.5892 17.7276 22.3802L21.0725 19.0353C21.4906 18.659 21.4906 18.0319 21.0725 17.6556L17.7276 14.3107C17.3513 13.8926 16.7242 13.8926 16.3479 14.3107C15.9298 14.687 15.9298 15.3142 16.3479 15.6905L17.9785 17.3211H13.3793C13.0449 17.3211 12.7522 17.4883 12.5431 17.7392L4.85001 28.0246H1.00345C0.418104 28.0246 0 28.4845 0 29.028C0 29.6134 0.418104 30.0315 1.00345 30.0315H5.35173C5.64441 30.0315 5.93708 29.906 6.14613 29.6552L13.8811 19.328H17.9785Z" fill="white"/>
<path d="M246.952 18.3246H252.931V20.6659C252.931 21.084 253.181 21.4603 253.558 21.6276C253.934 21.753 254.394 21.6694 254.645 21.3767L257.99 18.0319C258.408 17.6556 258.408 17.0284 257.99 16.6521L254.645 13.3073C254.394 13.0146 253.934 12.931 253.558 13.0564C253.181 13.2237 252.931 13.6 252.931 13.9763V16.3177H246.952C242.854 16.3177 239.593 19.6207 239.593 23.6763C239.593 24.2616 240.011 24.6797 240.597 24.6797C241.14 24.6797 241.6 24.2616 241.6 23.6763C241.6 20.7496 243.983 18.3246 246.952 18.3246ZM259.997 22.6728C259.411 22.6728 258.993 23.1328 258.993 23.6763C258.993 26.6448 256.568 29.028 253.641 29.028H247.621V26.6866C247.621 26.3104 247.37 25.9341 246.994 25.7668C246.617 25.6414 246.157 25.725 245.906 26.0177L242.562 29.3625C242.143 29.7388 242.143 30.366 242.562 30.7423L245.906 34.0871C246.157 34.3798 246.617 34.4634 246.994 34.338C247.37 34.1707 247.621 33.7944 247.621 33.3763V31.0349H253.641C257.697 31.0349 261 27.7737 261 23.6763C261 23.1328 260.54 22.6728 259.997 22.6728Z" fill="white"/>
</g>
<path d="M154 24C154 37.2548 143.255 48 130 48C116.745 48 106 37.2548 106 24C106 10.7452 116.745 0 130 0C143.255 0 154 10.7452 154 24Z" fill="white"/>
<path d="M126.68 31.8539C126.958 31.8539 127.271 31.7844 127.549 31.6106L137.56 25.4926C138.047 25.2146 138.36 24.6584 138.36 24.0674C138.36 23.5113 138.047 22.9551 137.56 22.677L127.549 16.559C127.271 16.3852 126.958 16.3157 126.68 16.3157C125.706 16.3157 125.011 17.0804 125.011 17.9495V30.1854C125.011 31.0892 125.706 31.8539 126.68 31.8539Z" fill="#18191C"/>
</svg>
