<svg width="29" height="24" viewBox="0 0 29 24" fill="none" xmlns="http://www.w3.org/2000/svg">
<path d="M15.9102 1.02734C15.6562 0.925781 15.4531 0.875 15.25 0.875C14.8438 0.875 14.4375 1.02734 14.1328 1.33203L7.27734 7.42578H3.0625C1.69141 7.42578 0.625 8.49219 0.625 9.86328V14.7383C0.625 16.0586 1.69141 17.1758 3.0625 17.1758H7.27734L14.1328 23.2188C14.4375 23.5234 14.8438 23.625 15.25 23.625C15.4531 23.625 15.6562 23.625 15.9102 23.5234C16.4688 23.2695 16.875 22.6602 16.875 22V2.55078C16.875 1.89062 16.4688 1.28125 15.9102 1.02734ZM14.4375 20.2227L8.24219 14.7383H3.0625V9.86328H8.24219L14.4375 4.32812V20.2227ZM21.5469 8.49219C21.3438 8.33984 21.0391 8.23828 20.7852 8.23828C20.4297 8.23828 20.0742 8.39062 19.8203 8.69531C19.4141 9.20312 19.4648 9.96484 20.0234 10.4219C20.582 10.8789 20.9375 11.5391 20.9375 12.3008C20.9375 13.0117 20.582 13.6719 20.0234 14.1289C19.4648 14.5859 19.4141 15.3477 19.8203 15.8555C20.0742 16.1602 20.4297 16.3125 20.7852 16.3125C21.0391 16.3125 21.3438 16.2109 21.5469 16.0586C22.7148 15.0938 23.375 13.7227 23.375 12.3008C23.375 10.8281 22.7148 9.45703 21.5469 8.49219ZM24.6445 4.78516C24.3906 4.58203 24.1367 4.48047 23.832 4.48047C23.4766 4.48047 23.1719 4.63281 22.918 4.9375C22.4609 5.44531 22.5625 6.20703 23.0703 6.66406C24.7969 8.03516 25.8125 10.1172 25.8125 12.3008C25.8125 14.4336 24.7969 16.5156 23.0703 17.8867C22.5625 18.3438 22.4609 19.1055 22.918 19.6133C23.1719 19.918 23.4766 20.0703 23.832 20.0703C24.1367 20.0703 24.3906 19.9688 24.6445 19.7656C26.9297 17.9375 28.25 15.1953 28.25 12.3008C28.25 9.35547 26.9297 6.61328 24.6445 4.78516Z" fill="white"/>
</svg>
